<?xml version="1.0" encoding="utf-8"?>
<!-- Generator: Adobe Illustrator 25.2.3, SVG Export Plug-In . SVG Version: 6.00 Build 0)  -->
<svg version="1.1" id="Layer_1" xmlns="http://www.w3.org/2000/svg" xmlns:xlink="http://www.w3.org/1999/xlink" x="0px" y="0px"
	 viewBox="0 0 453.3 205" style="enable-background:new 0 0 453.3 205;" xml:space="preserve">
<style type="text/css">
	.Arched_x0020_Green{fill:url(#SVGID_1_);stroke:#FFFFFF;stroke-width:0.25;stroke-miterlimit:1;}
	.st0{fill:none;}
	.st1{fill:#7D1230;}
	.st2{fill:#D3202A;}
	.st3{fill:#A6A650;}
	.st4{fill:#F58620;}
	.st5{fill:#FDE46A;}
	.st6{fill:#FFFFFF;}
</style>
<linearGradient id="SVGID_1_" gradientUnits="userSpaceOnUse" x1="226.6442" y1="101.4668" x2="227.3513" y2="100.7597">
	<stop  offset="0" style="stop-color:#1EAB4B"/>
	<stop  offset="0.9831" style="stop-color:#19361A"/>
</linearGradient>
<g>
	<rect x="-45.3" y="-45.3" class="st0" width="543.8" height="293.5"/>
	<g>
		<g>
			<g>
				<g>
					<path d="M156.7,92.1c0.6,0,2-0.2,2.4-0.4c0.8-0.3,1.1-0.9,1.1-1.6V72.7c0-0.7-0.2-1.3-1.1-1.6c-0.6-0.2-1.8-0.6-2.4-0.6v-0.7
						h11.5v0.7c-0.6,0.1-1.9,0.3-2.5,0.5c-0.8,0.3-1,0.9-1,1.6v17.4c0,0.7,0.3,1.3,1,1.6c0.4,0.2,1.9,0.5,2.5,0.5v0.7h-11.5V92.1z"
						/>
					<path d="M170.1,92.2c0.6,0,1-0.1,1.5-0.3c0.6-0.2,0.9-0.7,0.9-1.5v-9.9c0-0.7-0.4-1.5-0.9-1.8c-0.4-0.3-1.1-0.5-1.7-0.5v-0.6
						l6.2-0.4l0.2,0.2v2.3h0.1c1.3-1.3,2.5-2.8,5.4-2.8c3.1,0,4.6,2.1,4.6,5.3v8c0,0.7,0.2,1.2,0.8,1.5c0.5,0.2,0.8,0.3,1.5,0.4v0.7
						h-8.4v-0.7c0.5,0,1.1-0.1,1.5-0.3c0.5-0.2,0.7-0.7,0.7-1.5v-8.2c0-2.3-1.1-3.5-2.4-3.5c-2.1,0-3.3,1.5-3.7,2.2v9.3
						c0,0.7,0.2,1.3,0.8,1.5c0.5,0.2,0.9,0.3,1.5,0.4v0.7h-8.5V92.2z"/>
					<path d="M192.3,91.9l-0.5,1.1h-1.1l-0.2-5.5h0.7c0.5,1.8,2.5,5,5.3,5c2.1,0,2.9-1.2,2.9-2.8c0-1.8-1.5-2.5-3.9-3.2
						c-2.2-0.7-4.5-2-4.5-5c0-2.5,2.1-4.6,5.5-4.6c1.8,0,3.2,0.5,3.8,0.9l0.3-0.9h1l0.2,4.9h-0.7c-0.5-2.1-2.2-4.1-4.5-4.1
						c-1.7,0-2.5,1.1-2.5,2.4c0,1.8,1.3,2.3,3.8,3.1c2.7,0.9,4.6,2.3,4.6,5c0,3.2-2.6,5-6,5C194.7,93.3,192.9,92.5,192.3,91.9z"/>
					<path d="M207.2,88.5v-9.6h-3.1v-1.5h3.2v-5.1h3.8v5.1h4.5v1.5H211v9.3c0,1.7,0.5,3,2.3,3c1.7,0,1.9-1.4,2-2.7h0.8
						c-0.2,2.6-1.7,4.8-4.6,4.8C208.6,93.2,207.2,91.5,207.2,88.5z"/>
					<path d="M217.5,92.2c0.6,0,1-0.1,1.5-0.3c0.6-0.2,0.9-0.8,0.9-1.5v-9.9c0-0.7-0.3-1.3-0.9-1.7c-0.4-0.3-1.4-0.6-2-0.6v-0.6
						l6.5-0.4l0.2,0.2v12.8c0,0.7,0.3,1.3,0.9,1.6c0.5,0.2,1,0.3,1.5,0.4v0.7h-8.7V92.2z M219,70.7c0-1.4,1.1-2.5,2.5-2.5
						c1.4,0,2.5,1.1,2.5,2.4c0,1.4-1.1,2.5-2.5,2.5C220.1,73.1,219,72,219,70.7z"/>
					<path d="M230,88.5v-9.6h-3.1v-1.5h3.2v-5.1h3.8v5.1h4.5v1.5h-4.5v9.3c0,1.7,0.5,3,2.3,3c1.7,0,1.9-1.4,2-2.7h0.8
						c-0.2,2.6-1.7,4.8-4.6,4.8C231.4,93.2,230,91.5,230,88.5z"/>
					<path d="M242.2,87.7v-7.3c0-0.7-0.3-1.3-0.9-1.7c-0.4-0.3-1.1-0.5-1.7-0.5v-0.7l6.3-0.4l0.2,0.2v10.8c0,2.3,1,3.4,2.3,3.4
						c2.1,0,3.2-1.4,3.5-2.1v-9c0-0.7-0.3-1.3-0.8-1.7c-0.4-0.3-1.3-0.4-2.1-0.5v-0.7l6.6-0.4l0.2,0.2v12.4c0,0.7,0.3,1.3,0.9,1.7
						c0.4,0.3,1.1,0.4,1.7,0.4v0.7l-6.2,0.4l-0.2-0.2v-2.1h-0.1c-1.2,1.3-2.5,2.6-5.4,2.6C243.5,93.2,242.2,90.9,242.2,87.7z"/>
					<path d="M262.3,88.5v-9.6h-3.1v-1.5h3.2v-5.1h3.8v5.1h4.5v1.5h-4.5v9.3c0,1.7,0.5,3,2.3,3c1.7,0,1.9-1.4,2-2.7h0.8
						c-0.2,2.6-1.7,4.8-4.6,4.8C263.7,93.2,262.3,91.5,262.3,88.5z"/>
					<path d="M272.7,85c0-4.2,2.7-8.1,7.5-8.1c4.9,0,6.6,3.1,6.6,6.6v0.4h-9.9v0.4c0,4.2,1.4,7.3,4.8,7.3c2.4,0,3.5-0.8,4.7-3.1
						l0.6,0.4c-1.2,2.5-3.6,4.3-6.7,4.3C275.1,93.3,272.7,89.5,272.7,85z M282.6,83c0-2.5-0.3-5.3-2.6-5.3c-1.9,0-3,2-3.1,5.3
						L282.6,83z"/>
					<path d="M317.2,92.2c0.6,0,1-0.1,1.5-0.3c0.6-0.2,0.9-0.7,0.9-1.5V78.9h-3.4v-1.5h3.4v-0.8c0-2.8,0.6-5.1,2.3-6.8
						c1.4-1.5,3.3-2.2,5.3-2.2c3.1,0,4.1,1.7,4.1,3.2c0,0.8-0.7,2-2.1,2c-0.9,0-2.2-0.5-2.2-1.8c0-0.6,0.2-1.1,0.3-2
						c-0.1-0.4-0.4-0.7-0.8-0.7c-2,0-2.9,2.1-3.1,7c0,0.6,0,1.8,0,2.1h4.2v1.5h-4.2v11.4c0,0.7,0.3,1.3,0.9,1.5
						c0.5,0.2,1.6,0.4,2.2,0.4v0.7h-9.4V92.2z"/>
					<path d="M298.6,85.1c0-4.8,3.2-8.2,8.2-8.2c5,0,8,3.4,8,8c0,4.6-2.9,8.3-8.2,8.3C302.3,93.3,298.6,90.2,298.6,85.1z M310.5,85
						c0-3.6-0.8-7.3-3.7-7.3c-3.2,0-3.8,3.9-3.8,7.2c0,4,1,7.6,3.8,7.6C309.5,92.5,310.5,89,310.5,85z"/>
					<path d="M156.5,123c0-7.2,5.1-12.4,12-12.4c2.2,0,4.3,0.8,5.5,1.7l0.9-1.5h1.3l0.1,8.5h-0.8c-1.4-4.5-3.8-7.6-7.6-7.6
						c-3.6,0-6.4,3.9-6.4,10.9c0,6.5,3.2,10.4,7.4,10.4c3.8,0,5.9-2,7.4-5.1l0.9,0.5c-1.5,3.4-4.3,6.5-9.4,6.5
						C161.4,134.8,156.5,130.3,156.5,123z"/>
					<path d="M181,129.1v-7.3c0-0.7-0.3-1.3-0.9-1.7c-0.4-0.3-1.1-0.5-1.7-0.5V119l6.3-0.4l0.2,0.2v10.8c0,2.3,1,3.4,2.3,3.4
						c2.1,0,3.2-1.4,3.5-2.1v-9c0-0.7-0.3-1.3-0.8-1.7c-0.4-0.3-1.3-0.4-2.1-0.5V119l6.6-0.4l0.2,0.2v12.4c0,0.7,0.3,1.3,0.9,1.7
						c0.4,0.3,1.1,0.4,1.7,0.4v0.7l-6.2,0.4l-0.2-0.2V132h-0.1c-1.2,1.3-2.5,2.6-5.4,2.6C182.3,134.7,181,132.3,181,129.1z"/>
					<path d="M198.8,133.6c0.6,0,1-0.1,1.5-0.3c0.6-0.2,0.9-0.7,0.9-1.5v-19.2c0-0.8-0.4-1.6-0.9-2c-0.4-0.3-1.8-0.6-2.4-0.6v-0.7
						l6.9-0.4l0.2,0.2v22.4c0,0.7,0.3,1.3,0.9,1.6c0.5,0.2,0.9,0.3,1.5,0.4v0.7h-8.6V133.6z"/>
					<path d="M209.4,133.6c0.6,0,1-0.1,1.5-0.3c0.6-0.2,0.9-0.8,0.9-1.5V122c0-0.7-0.3-1.3-0.9-1.7c-0.4-0.3-1.4-0.6-2-0.6V119
						l6.5-0.4l0.2,0.2v12.8c0,0.7,0.3,1.3,0.9,1.6c0.5,0.2,1,0.3,1.5,0.4v0.7h-8.7V133.6z M210.9,112.1c0-1.4,1.1-2.5,2.5-2.5
						c1.4,0,2.5,1.1,2.5,2.4c0,1.4-1.1,2.5-2.5,2.5C212,114.5,210.9,113.4,210.9,112.1z"/>
					<path d="M219.9,133.6c0.6,0,1-0.1,1.5-0.3c0.6-0.2,0.9-0.7,0.9-1.5V122c0-0.7-0.4-1.5-0.9-1.8c-0.4-0.3-1.1-0.5-1.7-0.5V119
						l6.2-0.4l0.2,0.2v2.3h0.1c1.3-1.3,2.5-2.8,5.4-2.8c3.1,0,4.6,2.1,4.6,5.3v8c0,0.7,0.2,1.2,0.8,1.5c0.5,0.2,0.8,0.3,1.5,0.4v0.7
						h-8.4v-0.7c0.5,0,1-0.1,1.5-0.3c0.5-0.2,0.7-0.7,0.7-1.5v-8.2c0-2.3-1.1-3.5-2.4-3.5c-2.1,0-3.3,1.5-3.7,2.2v9.3
						c0,0.7,0.2,1.3,0.8,1.5c0.5,0.2,0.9,0.3,1.5,0.4v0.7h-8.5V133.6z"/>
					<path d="M240.6,131c0-2.8,1.6-3.8,3.3-4.4c2-0.7,4.5-1.4,5.7-2.2v-1.9c0-0.8,0-3.4-2.5-3.4c-1.1,0-1.6,0.6-1.9,0.9
						c0,0.5,0.4,1.4,0.4,2.2c0,0.7-0.9,1.7-2.3,1.7c-1.4,0-1.9-1.1-1.9-2c0-2.1,3.2-3.6,5.9-3.6c3.5,0,6.2,0.5,6.2,5
						c0,3.1-0.2,6.6-0.2,7.7c0,0.5,0.4,1.7,1.4,1.7c1.1,0,1.3-1.4,1.3-2.7h0.8c-0.2,3-1.3,4.6-3.9,4.6c-1.8,0-2.8-0.8-3.4-2.2h-0.1
						c-1.2,1.3-2.6,2.3-4.9,2.3C242.3,134.7,240.6,133.2,240.6,131z M249.4,131.4l0.1-5.9c-2.9,1-4.9,1.8-4.9,4.8
						c0,1.9,0.8,2.7,2,2.7C248.2,133,248.8,132.3,249.4,131.4z"/>
					<path d="M257.9,133.6c0.6,0,1-0.1,1.5-0.3c0.6-0.2,0.9-0.7,0.9-1.5V122c0-0.7-0.4-1.4-0.9-1.8c-0.4-0.3-1.1-0.5-1.7-0.5V119
						l6.2-0.4l0.2,0.2v2.3h0.1c1.4-1.8,3-2.7,4.5-2.7c1.3,0,2.5,1.1,2.5,2.5c0,1.4-0.8,2.5-2.1,2.5c-1.3,0-2.1-0.6-2.1-1.9
						c0-0.5,0.3-0.9,0.3-1.3c-1.6,0-2.7,1.3-3.1,1.9v9.5c0,0.7,0.3,1.3,0.9,1.5c0.6,0.2,1.7,0.4,2.2,0.4v0.7h-9.4V133.6z"/>
					<path d="M271.9,139.4c0-1.1,0.8-2.2,2.2-2.2c0.8,0,2,0.4,2,1.9c0,0.1,0,1.2-0.1,1.3c1.9-0.5,3.7-4.5,4-5.5
						c-1.7-4-4.4-10.1-5.8-13.6c-0.4-0.9-1.5-1.5-2.5-1.7v-0.7h8.3v0.7c-0.7,0-1.8,0.2-1.8,0.7c0,0,0.1,0.3,0.2,0.7
						c0.5,1.3,2.5,6.1,3.6,8.7h0.1c1-2.4,2.1-5.4,3.1-7.8c0.1-0.4,0.3-0.9,0.3-1.2c0-0.7-1.9-1.2-2.5-1.2v-0.7h6v0.6
						c-0.7,0.1-2,0.7-2.5,1.9c-0.7,1.7-2.2,5.4-3.4,8.4c-1,2.5-1.8,4.6-2,5.1c-2.5,6-4,7.1-6.4,7.1
						C273.6,141.9,271.9,141.3,271.9,139.4z"/>
					<path d="M297.6,133.5c0.6-0.1,2.2-0.2,2.6-0.4c0.8-0.3,1.1-0.9,1.1-1.7v-17.3c0-0.7-0.2-1.3-1.1-1.7c-0.6-0.3-2-0.6-2.6-0.6
						v-0.7h19.3v5.6h-0.9c-0.4-1.5-2.2-4.3-3.8-4.5c-0.8-0.1-1.7-0.1-2.8-0.1h-3.6v9.7h2.5c1.9,0,2.5-0.6,2.9-1
						c0.6-0.6,1.1-2.3,1.2-3.2h0.9v9.5h-0.9c-0.1-1-0.7-2.8-1.2-3.3c-0.5-0.5-1.1-1-2.9-1h-2.5v7.5c0,2.6,0.6,3,3.8,3
						c2.1,0,4.4,0,5.3-0.8c1.2-1.2,2.5-3.9,2.9-5h0.8l-0.4,6.8h-20.6V133.5z"/>
					<path d="M320.7,126.3c0-4.7,3.6-8,7.6-8c2,0,3.5,0.6,4,0.8v-6.5c0-0.7-0.3-1.6-0.9-1.9c-0.6-0.4-2-0.7-3-0.8v-0.6l7.5-0.4
						l0.2,0.2v22c0.1,0.7,0.3,1.3,0.9,1.6c0.4,0.3,1.4,0.4,2,0.5v0.7l-6.5,0.4l-0.2-0.2v-1.5l-0.1,0c-0.7,0.8-2.3,2.1-4.4,2.1
						C323.8,134.7,320.7,131.4,320.7,126.3z M332.2,131.5v-9.7c-0.3-1.1-1.3-2.7-3.3-2.7c-2.3,0-3.9,2.9-3.9,7.5
						c0,3.3,1.2,6.4,4.2,6.4C330.6,133.1,331.4,132.5,332.2,131.5z"/>
					<path d="M342.3,129.1v-7.3c0-0.7-0.3-1.3-0.9-1.7c-0.4-0.3-1.1-0.5-1.7-0.5V119l6.3-0.4l0.2,0.2v10.8c0,2.3,1,3.4,2.3,3.4
						c2.1,0,3.2-1.4,3.5-2.1v-9c0-0.7-0.3-1.3-0.8-1.7c-0.4-0.3-1.3-0.4-2.1-0.5V119l6.6-0.4l0.2,0.2v12.4c0,0.7,0.3,1.3,0.9,1.7
						c0.4,0.3,1.1,0.4,1.7,0.4v0.7l-6.2,0.4l-0.2-0.2V132h-0.1c-1.2,1.3-2.5,2.6-5.4,2.6C343.6,134.7,342.3,132.3,342.3,129.1z"/>
					<path d="M360.4,126.5c0-4.2,2.9-8.1,7.8-8.1c3.7,0,5.5,1.8,5.5,3.9c0,1.2-0.7,2.1-2.2,2.1c-0.8,0-2.2-0.5-2.2-1.9
						c0-1.3,0.5-1.5,0.6-2.3c-0.1-0.8-0.6-1.1-1.7-1.1c-1.8,0-3.6,1.9-3.6,7c0,3.9,1.7,6.8,4.4,6.8c2.4,0,3.6-1.1,4.7-3.1l0.7,0.5
						c-1.2,2.4-3.6,4.4-6.4,4.4C362.9,134.7,360.4,131.2,360.4,126.5z"/>
					<path d="M376.1,131c0-2.8,1.6-3.8,3.3-4.4c2-0.7,4.5-1.4,5.7-2.2v-1.9c0-0.8,0-3.4-2.5-3.4c-1.1,0-1.6,0.6-1.9,0.9
						c0,0.5,0.4,1.4,0.4,2.2c0,0.7-0.9,1.7-2.3,1.7c-1.4,0-1.9-1.1-1.9-2c0-2.1,3.2-3.6,5.9-3.6c3.5,0,6.2,0.5,6.2,5
						c0,3.1-0.2,6.6-0.2,7.7c0,0.5,0.4,1.7,1.4,1.7c1.1,0,1.3-1.4,1.3-2.7h0.8c-0.2,3-1.3,4.6-3.9,4.6c-1.8,0-2.8-0.8-3.4-2.2H385
						c-1.2,1.3-2.6,2.3-4.9,2.3C377.8,134.7,376.1,133.2,376.1,131z M385,131.4l0.1-5.9c-2.9,1-4.9,1.8-4.9,4.8c0,1.9,0.8,2.7,2,2.7
						C383.8,133,384.3,132.3,385,131.4z"/>
					<path d="M395.3,129.9v-9.6h-3.1v-1.5h3.2v-5.1h3.8v5.1h4.5v1.5h-4.5v9.3c0,1.7,0.5,3,2.3,3c1.7,0,1.9-1.4,2-2.7h0.8
						c-0.2,2.6-1.7,4.8-4.6,4.8C396.7,134.6,395.3,132.9,395.3,129.9z"/>
					<path d="M405.6,133.6c0.6,0,1-0.1,1.5-0.3c0.6-0.2,0.9-0.8,0.9-1.5V122c0-0.7-0.3-1.3-0.9-1.7c-0.4-0.3-1.4-0.6-2-0.6V119
						l6.5-0.4l0.2,0.2v12.8c0,0.7,0.3,1.3,0.9,1.6c0.5,0.2,1,0.3,1.5,0.4v0.7h-8.7V133.6z M407.1,112.1c0-1.4,1.1-2.5,2.5-2.5
						c1.4,0,2.5,1.1,2.5,2.4c0,1.4-1.1,2.5-2.5,2.5C408.2,114.5,407.1,113.4,407.1,112.1z"/>
					<path d="M416.1,126.6c0-4.8,3.2-8.2,8.2-8.2c5,0,8,3.4,8,8c0,4.6-2.9,8.3-8.2,8.3C419.8,134.7,416.1,131.6,416.1,126.6z
						 M428,126.4c0-3.6-0.8-7.3-3.7-7.3c-3.2,0-3.8,3.9-3.8,7.2c0,4,1,7.6,3.8,7.6C427,133.9,428,130.5,428,126.4z"/>
					<path d="M434.7,133.6c0.6,0,1-0.1,1.5-0.3c0.6-0.2,0.9-0.7,0.9-1.5V122c0-0.7-0.4-1.5-0.9-1.8c-0.4-0.3-1.1-0.5-1.7-0.5V119
						l6.2-0.4l0.2,0.2v2.3h0.1c1.3-1.3,2.5-2.8,5.4-2.8c3.1,0,4.6,2.1,4.6,5.3v8c0,0.7,0.2,1.2,0.8,1.5c0.5,0.2,0.8,0.3,1.5,0.4v0.7
						h-8.4v-0.7c0.5,0,1.1-0.1,1.5-0.3c0.5-0.2,0.7-0.7,0.7-1.5v-8.2c0-2.3-1.1-3.5-2.4-3.5c-2.1,0-3.3,1.5-3.7,2.2v9.3
						c0,0.7,0.2,1.3,0.8,1.5c0.5,0.2,1,0.3,1.5,0.4v0.7h-8.5V133.6z"/>
				</g>
				<g>
					<path d="M165.7,162.3h-6.8v3.1h6v1.9h-6v3.2h6.9v1.9h-9v-12h8.9V162.3z"/>
					<path d="M173.8,165.4c2.5,0.6,3.8,1.5,3.8,3.5c0,2.3-1.8,3.6-4.3,3.6c-1.8,0-3.6-0.6-5-1.9l1.3-1.5c1.1,1,2.3,1.6,3.8,1.6
						c1.3,0,2.1-0.6,2.1-1.5c0-0.9-0.5-1.3-2.7-1.8c-2.5-0.6-4-1.4-4-3.6c0-2.1,1.7-3.5,4.1-3.5c1.7,0,3.1,0.5,4.3,1.5l-1.1,1.6
						c-1.1-0.8-2.2-1.2-3.3-1.2c-1.2,0-1.9,0.6-1.9,1.4C170.9,164.5,171.5,164.9,173.8,165.4z"/>
					<path d="M185.3,172.4h-2.1v-10h-3.8v-2h9.7v2h-3.8V172.4z"/>
					<path d="M190.6,172.4V170h2.3v2.3H190.6z"/>
					<path d="M203.8,160.3h1.5v12.1h-2.1v-9.9l-2.2,0.6l-0.4-1.7L203.8,160.3z"/>
					<path d="M212.8,172.6c-1.7,0-2.8-0.6-3.8-1.4l1.1-1.6c0.9,0.8,1.7,1.1,2.7,1.1c1.8,0,2.8-1.6,2.9-3.8c-0.6,0.7-1.5,1.3-2.8,1.3
						c-2.5,0-4.2-1.5-4.2-3.8c0-2.4,1.8-4.2,4.5-4.2c1.5,0,2.5,0.4,3.3,1.3c0.9,0.9,1.5,2.2,1.5,4.6
						C217.9,169.9,216,172.6,212.8,172.6z M213.1,162c-1.5,0-2.4,1-2.4,2.2c0,1.3,1,2.2,2.4,2.2c1.5,0,2.4-1,2.4-2.2
						C215.6,163,214.7,162,213.1,162z"/>
					<path d="M219.7,160.4h8.4v1.6l-5.4,10.4h-2.4l5.4-10.1h-6V160.4z"/>
					<path d="M231.3,160.4h7.1v1.9h-5.3l-0.2,2.8c0.6-0.2,1.1-0.3,1.9-0.3c2.3,0,4.2,1.2,4.2,3.8c0,2.5-1.8,4.1-4.4,4.1
						c-1.8,0-3.3-0.7-4.4-1.8l1.3-1.5c1,0.9,2,1.4,3.1,1.4c1.4,0,2.4-0.8,2.4-2.1c0-1.2-1-2-2.5-2c-0.9,0-1.6,0.2-2.2,0.5l-1.3-0.8
						L231.3,160.4z"/>
				</g>
				<g>
					<path class="st1" d="M157,191.7h1.8l6,7.7v-7.7h1.9v11.2h-1.6l-6.2-8v8H157V191.7z"/>
					<path class="st1" d="M169.6,191.7h8.3v1.8h-6.3v2.9h5.6v1.8h-5.6v3h6.4v1.8h-8.4V191.7z"/>
					<path class="st1" d="M179.5,191.7h2.1l2.7,8.3l2.8-8.3h1.7l2.8,8.3l2.7-8.3h2.1l-3.9,11.3h-1.7l-2.8-8.1l-2.8,8.1h-1.7
						L179.5,191.7z"/>
					<path class="st1" d="M206.3,198.5l-4.4-6.8h2.3l3.1,4.9l3.2-4.9h2.3l-4.4,6.7v4.5h-2V198.5z"/>
					<path class="st1" d="M213,197.4L213,197.4c0-3.2,2.4-5.8,5.9-5.8s5.8,2.6,5.8,5.8v0c0,3.2-2.4,5.8-5.9,5.8S213,200.5,213,197.4
						z M222.7,197.4L222.7,197.4c0-2.2-1.6-4-3.8-4c-2.2,0-3.8,1.8-3.8,4v0c0,2.2,1.6,4,3.8,4C221.1,201.3,222.7,199.5,222.7,197.4z
						"/>
					<path class="st1" d="M227.1,191.7h5c1.4,0,2.5,0.4,3.2,1.1c0.6,0.6,0.9,1.4,0.9,2.4v0c0,1.8-1.1,2.9-2.7,3.4l3,4.2h-2.3
						l-2.8-3.9h-2.5v3.9h-2V191.7z M231.9,197.3c1.4,0,2.3-0.7,2.3-1.9v0c0-1.2-0.9-1.9-2.3-1.9h-2.9v3.8H231.9z"/>
					<path class="st1" d="M238.7,191.7h2v5.6l5.3-5.6h2.4l-4.7,4.8l4.9,6.4h-2.4l-3.8-5l-1.7,1.8v3.2h-2V191.7z"/>
					<path class="st1" d="M255.5,190.2h0.5V205h-0.5V190.2z"/>
					<path class="st1" d="M265.2,191.7h2v9.4h5.9v1.8h-7.9V191.7z"/>
					<path class="st1" d="M273.9,197.4L273.9,197.4c0-3.2,2.4-5.8,5.9-5.8s5.8,2.6,5.8,5.8v0c0,3.2-2.4,5.8-5.9,5.8
						S273.9,200.5,273.9,197.4z M283.6,197.4L283.6,197.4c0-2.2-1.6-4-3.8-4c-2.2,0-3.8,1.8-3.8,4v0c0,2.2,1.6,4,3.8,4
						C282,201.3,283.6,199.5,283.6,197.4z"/>
					<path class="st1" d="M287.2,201.3l1.2-1.4c1.1,0.9,2.2,1.5,3.5,1.5c1.2,0,2-0.6,2-1.4v0c0-0.8-0.4-1.2-2.5-1.7
						c-2.4-0.6-3.7-1.3-3.7-3.3v0c0-1.9,1.6-3.2,3.8-3.2c1.6,0,2.9,0.5,4.1,1.4l-1.1,1.5c-1-0.8-2-1.2-3-1.2c-1.2,0-1.8,0.6-1.8,1.3
						v0c0,0.9,0.5,1.2,2.7,1.8c2.4,0.6,3.6,1.4,3.6,3.3v0c0,2.1-1.6,3.3-4,3.3C290.2,203.1,288.6,202.5,287.2,201.3z"/>
					<path class="st1" d="M307,191.7h1.8l4.9,11.3h-2.1l-1.1-2.7h-5.3l-1.2,2.7h-2L307,191.7z M309.8,198.5l-1.9-4.5l-1.9,4.5H309.8
						z"/>
					<path class="st1" d="M315.6,191.7h1.8l6,7.7v-7.7h1.9v11.2h-1.6l-6.2-8v8h-1.9V191.7z"/>
					<path class="st1" d="M327.8,197.4L327.8,197.4c0-3.2,2.4-5.8,5.8-5.8c2,0,3.2,0.5,4.3,1.5l-1.2,1.5c-0.9-0.7-1.7-1.2-3.1-1.2
						c-2.1,0-3.6,1.8-3.6,4v0c0,2.3,1.5,4,3.8,4c1.1,0,2-0.3,2.7-0.8v-2.1h-2.9v-1.7h4.8v4.7c-1.1,0.9-2.7,1.7-4.7,1.7
						C330.1,203.1,327.8,200.6,327.8,197.4z"/>
					<path class="st1" d="M340.8,191.7h8.3v1.8h-6.3v2.9h5.6v1.8h-5.6v3h6.4v1.8h-8.4V191.7z"/>
					<path class="st1" d="M351.5,191.7h2v9.4h5.9v1.8h-7.9V191.7z"/>
					<path class="st1" d="M361.4,191.7h8.3v1.8h-6.3v2.9h5.6v1.8h-5.6v3h6.4v1.8h-8.4V191.7z"/>
					<path class="st1" d="M371.4,201.3l1.2-1.4c1.1,0.9,2.2,1.5,3.5,1.5c1.2,0,2-0.6,2-1.4v0c0-0.8-0.4-1.2-2.5-1.7
						c-2.4-0.6-3.7-1.3-3.7-3.3v0c0-1.9,1.6-3.2,3.8-3.2c1.6,0,2.9,0.5,4.1,1.4l-1.1,1.5c-1-0.8-2-1.2-3-1.2c-1.2,0-1.8,0.6-1.8,1.3
						v0c0,0.9,0.5,1.2,2.7,1.8c2.4,0.6,3.6,1.4,3.6,3.3v0c0,2.1-1.6,3.3-4,3.3C374.4,203.1,372.8,202.5,371.4,201.3z"/>
				</g>
			</g>
			<g>
				<g>
					<polygon class="st1" points="134.3,28.9 134.3,15 83.8,20.9 					"/>
					<polygon class="st1" points="0,48.5 0,134.3 134.3,134.3 134.3,41.6 100.4,36.2 					"/>
				</g>
				<polygon class="st2" points="51.4,28.4 0,34.7 0,48.5 100.4,36.2 				"/>
				<polygon class="st3" points="45.5,14.9 83.8,20.9 134.3,15 134.3,4.3 				"/>
				<polygon class="st3" points="0,20.3 0,20.3 0,34.7 51.4,28.4 				"/>
				<polygon class="st4" points="0,7.6 0,20.3 134.3,41.6 134.3,28.9 				"/>
				<g>
					<polygon class="st5" points="134.3,4.3 45.5,14.8 0,7.6 0,0 134.3,0 					"/>
				</g>
			</g>
		</g>
		<g>
			<rect x="13.7" y="69.7" class="st6" width="12.6" height="45.3"/>
			<path class="st6" d="M59.3,103.8c-6.3,0-11.4-5.1-11.4-11.4c0-6.3,5.1-11.4,11.4-11.4c3.6,0,6.8,1.6,8.8,4.2l9.4-7.7
				c-4.3-5.3-10.9-8.6-18.2-8.6c-13,0-23.6,10.5-23.6,23.6c0,13,10.5,23.6,23.6,23.6c7.5,0,14.2-3.5,18.5-8.9l-9.6-7.4
				C66.1,102.2,62.9,103.8,59.3,103.8z"/>
			<polygon class="st6" points="120.5,80.2 120.5,69.7 86.4,69.7 86.4,115 120.5,115 120.5,104.5 98.8,104.5 98.8,97.3 98.8,97.3 
				120,97.3 120,87.1 98.8,87.1 98.8,80.2 			"/>
		</g>
	</g>
</g>
</svg>
